<svg xmlns="http://www.w3.org/2000/svg" width="1280" height="720" viewBox="0 0 1280 720" shape-rendering="crispEdges">
  <rect width="1280" height="720" fill="#14100f"/>
  <rect x="70" y="70" width="1140" height="580" fill="#1a130f" stroke="#5a3a24" stroke-width="24"/>
  <path d="M160 150 H330 V240 H510 V150 H760 V260 H950 V150 H1120 V560 H960 V470 H740 V560 H520 V470 H330 V560 H160 Z" fill="#2b211a" stroke="#6b4b35" stroke-width="18"/>
  <rect x="150" y="145" width="70" height="90" fill="#42526c"/>
  <text x="190" y="130" text-anchor="middle" font-family="Courier New, monospace" font-size="34" fill="#f8e7b6">START</text>
  <rect x="1030" y="490" width="70" height="50" fill="#ffd76a"/>
  <rect x="1042" y="455" width="46" height="42" fill="#facc15"/>
  <rect x="270" y="500" width="36" height="58" fill="#3e8cc7"/>
  <rect x="280" y="470" width="18" height="30" fill="#d79a68"/>
  <rect x="600" y="240" width="58" height="58" fill="#7b2630"/>
  <rect x="615" y="255" width="9" height="9" fill="#fff"/>
  <rect x="638" y="255" width="9" height="9" fill="#fff"/>
  <rect x="840" y="390" width="58" height="58" fill="#7b2630"/>
  <rect x="855" y="405" width="9" height="9" fill="#fff"/>
  <rect x="878" y="405" width="9" height="9" fill="#fff"/>
  <text x="640" y="645" text-anchor="middle" font-family="Courier New, monospace" font-size="58" font-weight="700" fill="#fde68a">Large Cave Treasure Escape</text>
</svg>
